<svg xmlns="http://www.w3.org/2000/svg" viewBox="0 0 200 180" fill="none">
  <!-- Browser window frame -->
  <rect x="20" y="20" width="160" height="140" rx="12" ry="12" fill="none" stroke="#6B7280" stroke-width="6"/>
  <!-- Title bar -->
  <line x1="20" y1="52" x2="180" y2="52" stroke="#6B7280" stroke-width="4"/>
  <!-- Title bar dots -->
  <circle cx="40" cy="36" r="5" fill="#6B7280" opacity="0.6"/>
  <circle cx="58" cy="36" r="5" fill="#6B7280" opacity="0.6"/>
  <circle cx="76" cy="36" r="5" fill="#6B7280" opacity="0.6"/>
  <!-- Wheel - outer tire (teal) -->
  <circle cx="100" cy="112" r="48" fill="none" stroke="#14B8A6" stroke-width="10"/>
  <!-- Wheel - inner rim -->
  <circle cx="100" cy="112" r="36" fill="none" stroke="#6B7280" stroke-width="2"/>
  <!-- Wheel - hub -->
  <circle cx="100" cy="112" r="5" fill="#6B7280"/>
  <!-- Wheel - hub ring -->
  <circle cx="100" cy="112" r="8" fill="none" stroke="#6B7280" stroke-width="1.5"/>
  <!-- Spokes -->
  <line x1="100" y1="76" x2="100" y2="104" stroke="#6B7280" stroke-width="1.5"/>
  <line x1="100" y1="120" x2="100" y2="148" stroke="#6B7280" stroke-width="1.5"/>
  <line x1="64" y1="112" x2="92" y2="112" stroke="#6B7280" stroke-width="1.5"/>
  <line x1="108" y1="112" x2="136" y2="112" stroke="#6B7280" stroke-width="1.5"/>
  <!-- Diagonal spokes -->
  <line x1="74.6" y1="86.6" x2="94.3" y2="106.3" stroke="#6B7280" stroke-width="1.5"/>
  <line x1="105.7" y1="117.7" x2="125.4" y2="137.4" stroke="#6B7280" stroke-width="1.5"/>
  <line x1="125.4" y1="86.6" x2="105.7" y2="106.3" stroke="#6B7280" stroke-width="1.5"/>
  <line x1="94.3" y1="117.7" x2="74.6" y2="137.4" stroke="#6B7280" stroke-width="1.5"/>
  <!-- Additional spokes for detail -->
  <line x1="67.2" y1="97.6" x2="93" y2="108.5" stroke="#6B7280" stroke-width="1.2"/>
  <line x1="107" y1="115.5" x2="132.8" y2="126.4" stroke="#6B7280" stroke-width="1.2"/>
  <line x1="85.6" y1="79.2" x2="96.5" y2="105" stroke="#6B7280" stroke-width="1.2"/>
  <line x1="103.5" y1="119" x2="114.4" y2="144.8" stroke="#6B7280" stroke-width="1.2"/>
  <line x1="114.4" y1="79.2" x2="103.5" y2="105" stroke="#6B7280" stroke-width="1.2"/>
  <line x1="96.5" y1="119" x2="85.6" y2="144.8" stroke="#6B7280" stroke-width="1.2"/>
  <line x1="132.8" y1="97.6" x2="107" y2="108.5" stroke="#6B7280" stroke-width="1.2"/>
  <line x1="93" y1="115.5" x2="67.2" y2="126.4" stroke="#6B7280" stroke-width="1.2"/>
</svg>
